<svg width="61" height="28" viewBox="0 0 61 28" fill="none" xmlns="http://www.w3.org/2000/svg"><path d="M0 23.4V2h5.2V11l10-8.9h6l-7.4 6.7 8.5 14.7h-5.6l-6.2-10.7h-1l-4.3 3.8v7H0ZM27 27.7h-4L33.4.7h4L27 27.7ZM55.5 16.6h5.3c-.3 2.2-1.4 4-3.3 5.3-1.8 1.3-4 2-7 2a12 12 0 0 1-8.6-3c-2-2.1-3-4.8-3-8.2 0-3.3 1-6 3-8 2.1-2 5-3 8.7-3 2.7 0 5 .5 6.7 1.7a7.4 7.4 0 0 1 3.3 4.9h-5.4c-.5-1.8-2-2.7-4.6-2.7-2.1 0-3.7.7-4.9 2a7.7 7.7 0 0 0-1.6 5.1c0 2.1.5 3.8 1.6 5.2 1.2 1.3 2.8 2 4.9 2 1.3 0 2.4-.3 3.2-.9a4 4 0 0 0 1.7-2.4Z" fill="currentColor"/></svg>
